<svg xmlns="http://www.w3.org/2000/svg" version="1.1" xmlns:xlink="http://www.w3.org/1999/xlink" xmlns:svgjs="http://svgjs.com/svgjs" width="512" height="512" x="0" y="0" viewBox="0 0 512 512" style="enable-background:new 0 0 512 512" xml:space="preserve" class=""><g><path d="m120 400v88h-56a40 40 0 0 1 -40-40v-48z" fill="#4976f2" data-original="#4976f2" class=""></path><path d="m24 448a40 40 0 0 1 40-40h384a40 40 0 0 0 40-40v-272h-424a40 40 0 0 0 -40 40z" fill="#548aff" data-original="#548aff" class=""></path><path d="m72 144h32v32h-32z" fill="#91c0ff" data-original="#91c0ff"></path><path d="m328 144h32v32h-32z" fill="#91c0ff" data-original="#91c0ff"></path><path d="m488 368v-280a40 40 0 0 0 -40-40h-32v280h32a40 40 0 0 1 40 40z" fill="#7dafff" data-original="#7dafff"></path><path d="m208 152-24-32v-40h64v40l-24 32z" fill="#ffc431" data-original="#ffc431"></path><path d="m200 80v-40a16 16 0 0 1 16-16 16 16 0 0 1 16 16v40z" fill="#ffb401" data-original="#ffb401" class=""></path><circle cx="216" cy="112" fill="#f78e00" r="8" data-original="#f78e00" class=""></circle><g fill="#7dafff"><path d="m64 296h16v16h-16z" fill="#7dafff" data-original="#7dafff"></path><path d="m64 280h16v-128h72v-16h-72v-16h-16v16h-16v16h16z" fill="#7dafff" data-original="#7dafff"></path><path d="m384 136h-16v-16h-16v16h-72v16h72v64h16v-64h16z" fill="#7dafff" data-original="#7dafff"></path><path d="m352 232h16v16h-16z" fill="#7dafff" data-original="#7dafff"></path><path d="m80 328h-16v32a8.00008 8.00008 0 0 0 8 8h104v-16h-96z" fill="#7dafff" data-original="#7dafff"></path><path d="m352 352h-88v16h96a8.00008 8.00008 0 0 0 8-8v-96h-16z" fill="#7dafff" data-original="#7dafff"></path><path d="m192 352h16v16h-16z" fill="#7dafff" data-original="#7dafff"></path><path d="m224 352h16v16h-16z" fill="#7dafff" data-original="#7dafff"></path></g><path d="m135.99957 359.99986a8 8 0 0 1 -5.05922-10.11918l13.47031-40.41094 15.17872 5.06054-13.47 40.41007a8 8 0 0 1 -10.11981 5.05951z" fill="#f78e00" data-original="#f78e00" class=""></path><path d="m285.88067 354.94034-13.47-40.41007 15.17872-5.06054 13.47031 40.41094a8 8 0 0 1 -5.05922 10.11918 8 8 0 0 1 -10.11981-5.05951z" fill="#f78e00" data-original="#f78e00" class=""></path><path d="m184 120-48 192 8 24 24-16 40-168z" fill="#ffb401" data-original="#ffb401" class=""></path><path d="m248 120 48 192-8 24-24-16-40-168z" fill="#ffb401" data-original="#ffb401" class=""></path></g></svg>