<svg xmlns="http://www.w3.org/2000/svg" version="1.1" xmlns:xlink="http://www.w3.org/1999/xlink" xmlns:svgjs="http://svgjs.com/svgjs" width="512" height="512" x="0" y="0" viewBox="0 0 512 512" style="enable-background:new 0 0 512 512" xml:space="preserve" class=""><g><g><path d="m71.518 15h30v497h-30z" fill="#613d5c" data-original="#613d5c" class=""></path><path d="m432.411 137.743 33.442-66.885-11.016-7.339c-1.991-1.332-49.335-32.519-98.319-32.519s-96.328 31.187-98.32 32.52c-54.199 36.094-109.16 36.138-163.359 0l-.82 10.104v204.026c27.155 15.027 54.814 22.998 82.515 22.998 33.076 0 66.152-10.723 98.306-32.168 54.185-36.108 109.146-36.167 163.359 0l32.285 21.533z" fill="#ff6c6c" data-original="#ff6c6c"></path><g><g><path d="m432.411 137.743 33.442-66.885-11.016-7.339c-1.991-1.332-49.335-32.519-98.319-32.519-37.497 0-74.033 18.275-90 27.444v215.329c2.78-1.686 5.554-3.447 8.32-5.292 54.185-36.108 109.146-36.167 163.359 0l32.285 21.533z" fill="#e63950" data-original="#e63950"></path></g></g><path d="m86.518 15h15v497h-15z" fill="#4b2746" data-original="#4b2746"></path><path d="m41.518 0h90v30h-90z" fill="#613d5c" data-original="#613d5c" class=""></path><path d="m86.518 0h45v30h-45z" fill="#4b2746" data-original="#4b2746"></path></g></g></svg>