<svg xmlns="http://www.w3.org/2000/svg" version="1.1" xmlns:xlink="http://www.w3.org/1999/xlink" xmlns:svgjs="http://svgjs.com/svgjs" width="512" height="512" x="0" y="0" viewBox="0 0 512 512" style="enable-background:new 0 0 512 512" xml:space="preserve" class=""><g><g><g><path d="m194.211 166 61.789-62.935 30-34.877-30-68.102-225 120.914 45 57.035 45-2.966z" fill="#9de5f9" data-original="#9de5f9"></path><path d="m121 336.931 30-80.704-30-81.158-90-54.069v270l66.462-9.928z" fill="#80d4ff" data-original="#80d4ff" class=""></path><path d="m121 336.931-90 54.069 225 120.914 30-51.476-30-51.503-59.818-61.884z" fill="#6aa9ff" data-original="#6aa9ff"></path><path d="m481 391-36.513-51.936-53.487-2.133-60.622 2.282-74.378 69.722v102.979l.161.086z" fill="#4895ff" data-original="#4895ff"></path><path d="m481 391v-270l-60.911 6.593-29.089 47.476-30.571 81.158 30.571 80.704z" fill="#6aa9ff" data-original="#6aa9ff"></path><g fill="#80d4ff"><path d="m255.714 256 .286.172v-.344z" fill="#80d4ff" data-original="#80d4ff" class=""></path><path d="m310 156 81 19.069 90-54.069-224.839-121-.161.086v102.979z" fill="#80d4ff" data-original="#80d4ff" class=""></path></g></g><path d="m255.714 256-53.484-62.131-81.23-18.8v161.862l135 72.004 30-72.004-30-80.759z" fill="#dfe7f4" data-original="#dfe7f4"></path><path d="m256 255.828v.344 152.763l135-72.004v-161.862l-85.349 20.931z" fill="#c7cfe1" data-original="#c7cfe1"></path><path d="m256 103.065-135 72.004 134.714 80.931.286-.172 135-80.759z" fill="#f0f7ff" data-original="#f0f7ff"></path><path d="m391 175.069-135-72.004v152.763z" fill="#dfe7f4" data-original="#dfe7f4"></path></g></g></svg>