<svg xmlns="http://www.w3.org/2000/svg" version="1.1" xmlns:xlink="http://www.w3.org/1999/xlink" xmlns:svgjs="http://svgjs.com/svgjs" width="512" height="512" x="0" y="0" viewBox="0 0 511.843 511.843" style="enable-background:new 0 0 512 512" xml:space="preserve" class=""><g><path d="m187.262 228.701 6.953 1.277 5.416-29.507-78.755-14.457-76.002 76.003 67.278 67.277 21.213-21.213-1.75-1.75z" fill="#766e6e" data-original="#766e6e" class=""></path><path d="m311.372 312.211-14.754 2.708-14.754 2.709 1.276 6.953-77.629 55.647-1.75-1.75-21.213 21.213 67.278 67.277 76.003-76.003z" fill="#5b5555" data-original="#5b5555" class=""></path><path d="m482.002 151.58-177.484 177.483-143.712 102.12-80.144-80.143 102.12-143.712 177.485-177.484c28.369-28.369 70.908-37.462 108.392-23.172l26.439 10.076 10.069 26.432c14.291 37.484 5.204 80.03-23.165 108.4z" fill="#5b5555" data-original="#5b5555" class=""></path><path d="m482.002 151.58-177.484 177.483-143.712 102.12-40.072-40.072 374.364-374.362 10.069 26.432c14.291 37.483 5.204 80.029-23.165 108.399z" fill="#463f3f" data-original="#463f3f" class=""></path><path d="m87.154 506.986-87.151 4.858 4.851-87.158c1.923-34.62 24.169-64.813 56.675-76.898l28.891-10.748 84.386 84.386-10.748 28.892c-12.091 32.499-42.277 54.751-76.904 56.668z" fill="#fabc00" data-original="#fabc00" class=""></path><path d="m314.75 51.867h118.3v172.16h-118.3z" fill="#43e324" transform="matrix(.707 -.707 .707 .707 11.97 304.791)" data-original="#fe4a4a" class=""></path><path d="m164.059 450.318c-12.092 32.499-42.278 54.751-76.905 56.668l-87.151 4.858 132.611-132.611 42.193 42.193z" fill="#ff8908" data-original="#ff8908" class=""></path><path d="m345.183 125.34h118.3v86.08h-118.3z" fill="#00c400" transform="matrix(.707 -.707 .707 .707 -.637 335.224)" data-original="#e80b6a" class=""></path></g></svg>