<svg xmlns="http://www.w3.org/2000/svg" version="1.1" xmlns:xlink="http://www.w3.org/1999/xlink" xmlns:svgjs="http://svgjs.com/svgjs" width="512" height="512" x="0" y="0" viewBox="0 0 512 512" style="enable-background:new 0 0 512 512" xml:space="preserve" class=""><g><g><path d="m470.72 158.226h20.79c4.142 0 7.5-3.358 7.5-7.5s-3.358-7.5-7.5-7.5h-20.79z" fill="#f0c87e" data-original="#f0c87e"></path><path d="m485.719 66.653-444.439-44.982-15-.019v461.194l123.146 10 30-25v-203.047c0-43.698 35.425-79.123 79.123-79.123s79.123 35.425 79.123 79.123l-.1 213.048 25 15 123.146-10v-15l-16.077-143.561 16.077-166.061v-15l-6.766-8.287 6.766-8.287v-59.998z" fill="#f4daa7" data-original="#f4daa7"></path><path d="m41.28 21.671 444.439.554v44.427h-436.939c-4.142 0-7.5-3.358-7.5-7.5zm108.147 136.555h-108.147v309.621h108.146v-309.621zm213.146 0v309.621h123.146v-309.621zm-321.293-15h444.439v-16.573h-444.439z" fill="#f8e7c7" data-original="#f8e7c7"></path><path d="m495.961 29.153h-479.922c-4.142 0-7.5-3.358-7.5-7.5s3.358-7.5 7.5-7.5h479.922c4.143 0 7.5 3.358 7.5 7.5s-3.357 7.5-7.5 7.5z" fill="#f4daa7" data-original="#f4daa7"></path><g fill="#f0c87e"><circle cx="452.902" cy="51.653" r="8" fill="#f0c87e" data-original="#f0c87e"></circle><circle cx="420.085" cy="51.653" r="8" fill="#f0c87e" data-original="#f0c87e"></circle><circle cx="387.269" cy="51.653" r="8" fill="#f0c87e" data-original="#f0c87e"></circle><circle cx="354.451" cy="51.653" r="8" fill="#f0c87e" data-original="#f0c87e"></circle><circle cx="321.634" cy="51.653" r="8" fill="#f0c87e" data-original="#f0c87e"></circle><circle cx="288.817" cy="51.653" r="8" fill="#f0c87e" data-original="#f0c87e"></circle><circle cx="256" cy="51.653" r="8" fill="#f0c87e" data-original="#f0c87e"></circle><circle cx="223.183" cy="51.653" r="8" fill="#f0c87e" data-original="#f0c87e"></circle><circle cx="190.366" cy="51.653" r="8" fill="#f0c87e" data-original="#f0c87e"></circle><circle cx="157.549" cy="51.653" r="8" fill="#f0c87e" data-original="#f0c87e"></circle><circle cx="124.732" cy="51.653" r="8" fill="#f0c87e" data-original="#f0c87e"></circle><circle cx="91.915" cy="51.653" r="8" fill="#f0c87e" data-original="#f0c87e"></circle><circle cx="59.098" cy="51.653" r="8" fill="#f0c87e" data-original="#f0c87e"></circle><path d="m149.427 467.847h30v15l-30 10z" fill="#f0c87e" data-original="#f0c87e"></path><path d="m255.995 158.226h.01c58.855.003 106.566 47.713 106.568 106.568 0-59.457 0-106.568 0-106.568h-213.146v106.573c0-58.857 47.712-106.57 106.568-106.573z" fill="#f0c87e" data-original="#f0c87e"></path><path d="m347.673 264.799c0-50.574-39.663-89.573-86.123-89.573s-82.123 38.999-82.123 89.573c0-42.484 34.597-76.886 77.154-76.571 42.221.313 75.993 35.31 75.993 77.532v217.087l30 10v-25h-7.495c-4.144 0-7.503-3.353-7.5-7.497.018-32.19.094-151.541.094-195.551z" fill="#f0c87e" data-original="#f0c87e"></path></g><path d="m119.427 367.095c0-16-3-25.552-3-25.552s3-9.458 3-25.299-13.753-21.445-30.718-21.445c-5.09 0-9.887.502-14.114 1.629-1.367 3.753-6.604 9.86-6.604 19.816v101.701h51.436c0-15.921-3-25.425-3-25.425s3-9.426 3-25.425z" fill="#f4daa7" data-original="#f4daa7"></path><path d="m72.991 367.095c0-15.921 3-25.425 3-25.425s-3-9.505-3-25.425c0-9.956.237-16.063 1.604-19.816-9.861 2.627-16.604 8.673-16.604 19.816 0 15.921 3 25.425 3 25.425s-3 9.505-3 25.425 3 25.425 3 25.425-3 9.505-3 25.425h15c0-15.921 3-25.425 3-25.425s-3-9.505-3-25.425z" fill="#f0c87e" data-original="#f0c87e"></path><path d="m67.991 472.847 51.436-5c0-17.898 0-39.241 0-49.902h-51.436z" fill="#f8e7c7" data-original="#f8e7c7"></path><path d="m57.991 482.847h61.436v-15h-38.936c-4.142 0-7.5-3.358-7.5-7.5v-42.402h-15z" fill="#f4daa7" data-original="#f4daa7"></path><path d="m402.573 472.847 51.436-5c0-17.898 0-39.241 0-49.902h-51.436z" fill="#f8e7c7" data-original="#f8e7c7"></path><path d="m407.573 417.946h-15v64.902h61.436v-15h-38.936c-4.142 0-7.5-3.358-7.5-7.5z" fill="#f4daa7" data-original="#f4daa7"></path><path d="m454.009 367.095c0-16-3-25.552-3-25.552s3-9.458 3-25.299-13.753-21.445-30.718-21.445c-5.09 0-9.887.502-14.114 1.629-1.367 3.753-6.604 9.86-6.604 19.816v101.701h51.436c0-15.921-3-25.425-3-25.425s3-9.426 3-25.425z" fill="#f4daa7" data-original="#f4daa7"></path><path d="m410.573 392.52s-3-9.505-3-25.425 3-25.425 3-25.425-3-9.505-3-25.425c0-9.956.237-16.063 1.604-19.816-9.861 2.627-16.604 8.673-16.604 19.816 0 15.921 3 25.425 3 25.425s-3 9.505-3 25.425 3 25.425 3 25.425-3 9.505-3 25.425h15c0-15.92 3-25.425 3-25.425z" fill="#f0c87e" data-original="#f0c87e"></path><path d="m71.28 188.226-10 31.573 58.206-10v-14.073c0-4.142-3.358-7.5-7.5-7.5z" fill="#f4daa7" data-original="#f4daa7"></path><path d="m71.28 188.226h-7.5c-4.142 0-7.5 3.358-7.5 7.5v21.573c0 4.142 3.358 7.5 7.5 7.5h48.206c4.142 0 7.5-3.358 7.5-7.5v-7.5h-48.206z" fill="#f0c87e" data-original="#f0c87e"></path><path d="m407.513 188.226-10 31.573 58.206-10v-14.073c0-4.142-3.358-7.5-7.5-7.5z" fill="#f4daa7" data-original="#f4daa7"></path><path d="m407.513 188.226h-7.5c-4.142 0-7.5 3.358-7.5 7.5v21.573c0 4.142 3.358 7.5 7.5 7.5h48.206c4.142 0 7.5-3.358 7.5-7.5v-7.5h-48.206z" fill="#f0c87e" data-original="#f0c87e"></path><path d="m499.865 81.653h-487.73c-2.324 0-4.002 2.223-3.366 4.458l5.719 20.095c.917 3.223 3.862 5.447 7.214 5.447h468.596c3.351 0 6.296-2.223 7.214-5.447l5.719-20.095c.636-2.235-1.042-4.458-3.366-4.458z" fill="#f8e7c7" data-original="#f8e7c7"></path><path d="m186.927 272.299h-37.5l-49.512-2.443-58.634 2.443h-20.79c-4.142 0-7.5-3.358-7.5-7.5s3.358-7.5 7.5-7.5h20.79l58.634 2.443 49.512-2.443h37.5c4.142 0 7.5 3.358 7.5 7.5s-3.358 7.5-7.5 7.5z" fill="#f0c87e" data-original="#f0c87e"></path><path d="m41.28 158.226h-20.79c-4.142 0-7.5-3.358-7.5-7.5s3.358-7.5 7.5-7.5h20.79z" fill="#f0c87e" data-original="#f0c87e"></path><path d="m41.28 257.299h108.146v15h-108.146z" fill="#f4daa7" data-original="#f4daa7"></path><path d="m325.073 272.299h37.5l49.512-2.443 73.634 2.443h5.79c4.142 0 7.5-3.358 7.5-7.5s-3.358-7.5-7.5-7.5h-5.79l-73.634 2.443-49.512-2.443h-37.5c-4.142 0-7.5 3.358-7.5 7.5s3.358 7.5 7.5 7.5z" fill="#f0c87e" data-original="#f0c87e"></path><path d="m362.573 257.299h123.146v15h-123.146z" fill="#f4daa7" transform="matrix(-1 0 0 -1 848.293 529.599)" data-original="#f4daa7"></path><path d="m244.307 162.419h23.385v15h-23.385z" fill="#f0c87e" transform="matrix(0 -1 1 0 86.081 425.919)" data-original="#f0c87e"></path><path d="m199.84 497.847h-192.34c-4.142 0-7.5-3.358-7.5-7.5s3.358-7.5 7.5-7.5h192.34c4.142 0 7.5 3.358 7.5 7.5s-3.358 7.5-7.5 7.5z" fill="#f8e7c7" data-original="#f8e7c7"></path><path d="m504.5 497.847h-192.341c-4.143 0-7.5-3.358-7.5-7.5s3.357-7.5 7.5-7.5h192.341c4.143 0 7.5 3.358 7.5 7.5s-3.357 7.5-7.5 7.5z" fill="#f8e7c7" data-original="#f8e7c7"></path></g></g></svg>