<svg xmlns="http://www.w3.org/2000/svg" version="1.1" xmlns:xlink="http://www.w3.org/1999/xlink" xmlns:svgjs="http://svgjs.com/svgjs" width="512" height="512" x="0" y="0" viewBox="0 0 512 512" style="enable-background:new 0 0 512 512" xml:space="preserve" class=""><g><circle cx="256" cy="256" fill="#ecb347" r="232" data-original="#ecb347" class=""></circle><path d="m48 280c0-128.13 103.87-232 232-232a231.094 231.094 0 0 1 151.61 56.39 231.467 231.467 0 0 0 -175.61-80.39c-128.13 0-232 103.87-232 232a231.467 231.467 0 0 0 80.39 175.61 231.094 231.094 0 0 1 -56.39-151.61z" fill="#f6e597" data-original="#f6e597" class=""></path><path d="m256 24c128.13 0 232 103.87 232 232s-103.87 232-232 232z" fill="#0c5177" data-original="#0c5177"></path><path d="m472 280a230.919 230.919 0 0 1 -31.186 116.239 230.967 230.967 0 0 0 47.186-140.239c0-128.13-103.87-232-232-232v24.559c120.665 8.222 216 108.691 216 231.441z" fill="#045f9c" data-original="#045f9c"></path><path d="m481.179 200h-33.179l-40 88v96h41.506a232.414 232.414 0 0 0 31.673-184z" fill="#4895aa" data-original="#4895aa"></path><circle cx="96" cy="96" fill="#e97867" r="40" data-original="#e97867"></circle><path d="m344 304h48v64h-48z" fill="#7b81c6" data-original="#7b81c6"></path><path d="m392 304h32v64h-32z" fill="#4e52a8" data-original="#4e52a8"></path><path d="m320 200 96-56-16-32 72-40a107.792 107.792 0 0 0 -89.689-48h-6.311l-64 80 24 48-48 40 1.689.845a67.785 67.785 0 0 0 30.311 7.155z" fill="#d1dee0" data-original="#d1dee0"></path><path d="m472 72a107.786 107.786 0 0 0 -67.839-45.751 107.741 107.741 0 0 1 43.839 37.751l-57.745 32.08a17.033 17.033 0 0 0 -6.962 22.506l1.566 3.131a17.033 17.033 0 0 1 -6.652 22.329l-76.622 44.7a21.246 21.246 0 0 1 -13.006 2.846l-.075-.008-.5.42 1.689.845a67.785 67.785 0 0 0 30.307 7.151l96-56-16-32z" fill="#b6c4c6" data-original="#b6c4c6"></path><path d="m184 376v-48a24 24 0 0 0 -48 0v48a40 40 0 1 0 48 0z" fill="#d1dee0" data-original="#d1dee0"></path><path d="m40 36.686h16v22.627h-16z" fill="#eeaaa8" transform="matrix(.707 -.707 .707 .707 -19.882 48)" data-original="#eeaaa8"></path><path d="m88 16h16v16h-16z" fill="#eeaaa8" data-original="#eeaaa8"></path><path d="m16 88h16v16h-16z" fill="#eeaaa8" data-original="#eeaaa8"></path><path d="m328 304h64l-32-32z" fill="#e97867" data-original="#e97867"></path><path d="m453.666 72h18.334a107.792 107.792 0 0 0 -89.689-48h-6.311a86.834 86.834 0 0 0 77.666 48z" fill="#b6c4c6" data-original="#b6c4c6"></path><path d="m264 203.056h16v17.889h-16z" fill="#4895aa" transform="matrix(.447 -.894 .894 .447 -39.261 360.475)" data-original="#4895aa"></path><path d="m296 216h16v16h-16z" fill="#4895aa" data-original="#4895aa"></path><path d="m384 192a16 16 0 0 0 16 16h83.016a230.294 230.294 0 0 0 -9.181-32h-73.835a16 16 0 0 0 -16 16z" fill="#96d6e4" data-original="#96d6e4"></path><path d="m472 208v16a96 96 0 0 1 -19.2 57.6l-4.8 6.4a27.315 27.315 0 0 1 -19.314 8h-20.686l-8-24 24-32v-32z" fill="#2a6377" data-original="#2a6377"></path><path d="m400 272 20.555-13.7a46.805 46.805 0 0 0 19.445-50.3h-32a34.632 34.632 0 0 1 -22.472 32.427l-41.528 15.573 16 16z" fill="#4895aa" data-original="#4895aa"></path><path d="m320 80v-16a16 16 0 0 0 -16-16h-64a16 16 0 0 0 -16 16 16 16 0 0 0 16 16h24v16a16 16 0 0 0 16 16h48a16 16 0 0 0 16-16 16 16 0 0 0 -16-16z" fill="#b6c4c6" data-original="#b6c4c6"></path><path d="m277.657 173.657-11.314-11.314 14.847-14.843-11.72-3.906a8 8 0 0 1 -4.625-11.168l24-48 14.31 7.156-19.874 39.749 15.249 5.083a8 8 0 0 1 3.127 13.247z" fill="#ecb347" data-original="#ecb347" class=""></path><path d="m168 394.165v-66.165h-16v66.165a16 16 0 1 0 16 0z" fill="#af1e4b" data-original="#af1e4b"></path><g fill="#af4f45"><path d="m208.845 323.578-9.551-19.1a32.931 32.931 0 0 1 2.049-32.916 16.889 16.889 0 0 0 1.052-16.883l-9.55-19.1 14.31-7.156 9.551 19.1a32.931 32.931 0 0 1 -2.049 32.916 16.889 16.889 0 0 0 -1.052 16.883l9.55 19.1z" fill="#af4f45" data-original="#af4f45"></path><path d="m248.845 331.578-9.551-19.1a32.931 32.931 0 0 1 2.049-32.916 16.889 16.889 0 0 0 1.052-16.883l-9.55-19.1 14.31-7.156 9.551 19.1a32.931 32.931 0 0 1 -2.049 32.916 16.889 16.889 0 0 0 -1.052 16.883l9.55 19.1z" fill="#af4f45" data-original="#af4f45"></path><path d="m62.39 331.578-14.311-7.156 9.55-19.1a16.886 16.886 0 0 0 -1.051-16.883 32.926 32.926 0 0 1 -2.049-32.916l9.55-19.1 14.311 7.154-9.55 19.1a16.888 16.888 0 0 0 1.051 16.884 32.926 32.926 0 0 1 2.049 32.916z" fill="#af4f45" data-original="#af4f45"></path><path d="m102.39 323.578-14.311-7.156 9.55-19.1a16.886 16.886 0 0 0 -1.051-16.883 32.926 32.926 0 0 1 -2.049-32.916l9.55-19.1 14.311 7.154-9.55 19.1a16.888 16.888 0 0 0 1.051 16.884 32.926 32.926 0 0 1 2.049 32.916z" fill="#af4f45" data-original="#af4f45"></path></g><path d="m256 192h-87.03a40.966 40.966 0 0 1 -28.97-12 40.966 40.966 0 0 0 -28.97-12h-9.373a40.972 40.972 0 0 0 -24.583 8.194l-21.074 15.806-26.407 13.2q-2.07 9.264-3.386 18.8h229.793z" fill="#c18423" data-original="#c18423" class=""></path><path d="m216 136v16h-16v-32h-16v72h16v-24h24a8 8 0 0 0 8-8v-24z" fill="#64962f" data-original="#64962f"></path><path d="m360 272h48l32 32h-48z" fill="#af4f45" data-original="#af4f45"></path><path d="m424 416-8.414-5.609a26.475 26.475 0 0 0 -30.572.849l-1.014.76a26.667 26.667 0 0 1 -32 0 26.667 26.667 0 0 0 -32 0l-9.681 7.261a23.7 23.7 0 0 1 -14.219 4.739h-40.1v64a231.341 231.341 0 0 0 168-72z" fill="#4895aa" data-original="#4895aa"></path><path d="m400 358.627a22.627 22.627 0 0 1 -32 0 22.628 22.628 0 0 0 -32 0 22.627 22.627 0 0 1 -32 0l-1.742-1.742a22.627 22.627 0 0 0 -30.058-1.73l-16.2 12.845v56h40.1a23.7 23.7 0 0 0 14.217-4.739l9.683-7.261a26.667 26.667 0 0 1 32 0 26.667 26.667 0 0 0 32 0l1.014-.76a26.475 26.475 0 0 1 30.572-.849l8.414 5.609a232.909 232.909 0 0 0 31.012-40.713l-23.012-16.66a22.628 22.628 0 0 0 -32 0z" fill="#96d6e4" data-original="#96d6e4"></path><path d="m272 432 32 16-16 16-24-8z" fill="#0c5177" data-original="#0c5177"></path><path d="m272 384h16v16h-16z" fill="#4895aa" data-original="#4895aa"></path><path d="m351.056 372h17.889v16h-17.889z" fill="#4895aa" transform="matrix(.894 -.447 .447 .894 -131.935 201.115)" data-original="#4895aa"></path><path d="m336 435.056h16v17.889h-16z" fill="#0c5177" transform="matrix(.447 -.894 .894 .447 -206.967 553.12)" data-original="#0c5177"></path></g></svg>